<svg xmlns="http://www.w3.org/2000/svg" version="1.0" width="512" height="512" viewBox="0 0 512 512" preserveAspectRatio="xMidYMid meet">

<g fill="#0080FF" stroke="none" transform="translate(0.000000,512.000000) scale(0.100000,-0.100000)">
<path d="M2339 5116 c-2 -2 -42 -7 -89 -11 -46 -3 -87 -8 -90 -10 -3 -1 -29 -6 -58 -9 -30 -3 -75 -11 -100 -17 -26 -6 -58 -13 -72 -15 -45 -9 -224 -64 -232 -72 -4 -4 28 -37 72 -72 181 -148 422 -414 562 -623 108 -160 254 -433 273 -509 9 -37 24 -47 80 -53 404 -49 741 -315 874 -691 47 -136 63 -224 67 -384 6 -263 -44 -458 -165 -656 -125 -203 -352 -378 -571 -440 -11 -3 -173 -41 -187 -44 -2 0 -16 0 -31 0 -26 0 -32 -7 -57 -67 -116 -278 -294 -566 -490 -793 -100 -116 -383 -380 -406 -380 -5 0 -9 -4 -9 -8 0 -19 238 -78 430 -107 214 -33 543 -38 710 -11 14 3 43 7 65 10 300 39 663 165 911 316 36 22 68 40 69 40 8 0 146 97 225 158 77 60 316 290 365 352 102 129 95 118 175 242 30 46 61 93 68 104 7 10 41 78 77 149 68 139 121 273 155 395 11 41 25 89 30 105 14 48 48 234 55 310 4 39 9 88 11 110 10 103 3 455 -11 505 -2 8 -7 35 -10 60 -3 25 -10 70 -16 100 -168 880 -792 1590 -1653 1884 -100 34 -261 76 -346 91 -19 3 -42 8 -50 10 -8 2 -42 7 -75 11 -33 3 -69 8 -80 11 -23 5 -471 14 -476 9z" fill="#10111D"/>
<path d="M1460 4893 c-111 -42 -385 -206 -375 -224 3 -4 41 -33 84 -64 130 -91 311 -258 422 -390 19 -22 37 -42 40 -45 12 -10 117 -158 164 -230 27 -41 80 -134 118 -207 l68 -133 57 29 c85 43 211 80 317 92 l93 12 -77 151 c-42 83 -86 165 -97 181 -12 17 -42 63 -68 103 -137 210 -365 461 -561 617 -27 22 -52 42 -55 45 -15 15 -100 70 -107 69 -4 0 -15 -3 -23 -6z"/>
<path d="M838 4488 c-98 -86 -218 -207 -218 -219 0 -5 4 -9 8 -9 25 0 202 -143 317 -255 245 -239 450 -616 517 -950 16 -75 17 -75 48 8 58 154 150 286 283 405 l37 32 -26 58 c-156 353 -418 680 -724 903 -79 58 -143 99 -154 99 -3 0 -43 -33 -88 -72z"/>
<path d="M449 4053 c-59 -83 -113 -171 -148 -240 l-20 -41 27 -17 c65 -42 322 -328 322 -359 0 -3 15 -29 33 -58 168 -266 235 -695 163 -1033 -45 -210 -131 -403 -253 -566 -63 -84 -172 -199 -234 -246 -28 -21 -47 -43 -44 -50 10 -27 140 -230 182 -286 l44 -57 31 17 c63 37 236 183 305 257 40 43 100 114 133 159 33 45 64 87 68 93 53 64 206 402 227 504 51 243 56 279 59 430 13 615 -266 1169 -765 1523 -37 26 -69 47 -71 47 -2 0 -29 -35 -59 -77z"/>
<path d="M191 3588 c-5 -13 -16 -41 -26 -63 -42 -100 -114 -364 -130 -483 -3 -20 -8 -46 -10 -58 -29 -135 -27 -551 4 -749 30 -187 99 -434 166 -589 16 -38 16 -38 38 -20 113 93 243 264 315 411 89 183 126 347 126 568 1 375 -122 675 -384 932 -74 73 -88 80 -99 51z"/>
<path d="M1479 2218 c0 -7 -2 -20 -4 -28 -2 -8 -6 -28 -8 -43 -48 -248 -221 -593 -405 -810 -59 -69 -220 -225 -277 -267 -33 -25 -62 -47 -65 -50 -3 -3 -25 -18 -48 -34 l-44 -30 99 -96 c104 -102 208 -190 225 -190 13 0 170 111 253 180 44 36 266 260 292 295 13 17 37 48 54 70 65 82 165 244 226 367 35 69 63 131 63 136 0 6 -38 48 -83 94 -46 46 -100 106 -121 135 -40 57 -120 213 -131 256 -7 27 -24 37 -26 15z"/>
<path d="M1961 1581 c-21 -48 -76 -153 -149 -282 -36 -64 -136 -200 -222 -303 -92 -110 -264 -268 -405 -371 -44 -33 -82 -61 -85 -63 -3 -2 2 -9 12 -15 9 -7 25 -18 36 -26 62 -44 334 -181 358 -181 9 0 53 29 99 65 254 198 472 440 644 716 72 115 205 378 197 387 -3 3 -21 6 -38 7 -121 9 -247 40 -352 89 l-71 33 -24 -56z"/>
</g>
</svg>